<svg version="1.2" width="312.63mm" height="423.95" viewBox="-5222 5003 31263 11217" preserveAspectRatio="xMidYMid" fill-rule="evenodd" stroke-width="28.222" stroke-linejoin="round" xmlns="http://www.w3.org/2000/svg"><defs class="ClipPathGroup"><clipPath id="a" clipPathUnits="userSpaceOnUse"><path d="M-5222 5003h31263v11217H-5222z"/></clipPath></defs><g class="SlideGroup"><g class="Slide" clip-path="url(#a)"><g class="Page"><g class="Graphic"><path class="BoundingBox" fill="none" d="M-5222 5003h9525v11218h-9525z"/><defs><clipPath id="b" clipPathUnits="userSpaceOnUse"><path d="M-5222 5003h9524v11217h-9524V5003z"/></clipPath></defs><g clip-path="url(#b)"><path fill="#FBA919" d="M-3426 7157s152 585 174 780c21 196-391 629-391 846s87 607 564 802 542 694 542 998c0 303-173 888-173 888s-109 1453 477 1713c585 260 455 260 585 260s1084 391 1648 239c563-152 715-325 715-325s564 43 737-455c173-499 282-1540 217-2017s-152-1105 238-1322 802-477 737-694c-65-216-412-520-412-520s-87-542-22-672 455-455 238-694c-216-238-607-238-607-238l-498 43s-845-759-1951-716c-1105 44-1799 716-1799 716s-369-130-694 0-390 0-325 368z"/><path fill="#E78724" d="M-1445 10385s-429 656-744 1122c-49 72 315 77 315 77l429-1199zm205-1361zm-201 494c-77 186-370 279-370 279s152-160 152-564c0-169 219-237 219-237l200 28c-4 9-131 325-201 494z"/><path fill="#E78724" d="M-2129 9345c-492-176-543-808-543-985 0-176 935 177 1061 253s366 379 240 593c0 0-265 316-758 139zm-344-3360c303 240 391 429 391 429l-511 405s-247-114-322-442c-76-329-26-480-316-543 0 0 455-89 758 151z"/><path fill="#E78724" d="M-1504 8295c-195-278-518-399-775-419-439-35-648 121-648 121s719 30 926 302c386 507 949 548 1039 437-104 5-218-47-341-163-77-72-139-190-201-278zm-1214 982s-797-274-646-552c152-278 31-429 31-429s-445 332-332 686c70 217 187 374 830 675 308 572 63 1603 78 1608 24 8 433-202 405-1166-9-297-32-700-365-822h-1zm1046-2949h-1 1zm-793 406l180 91c-17 27-25 44-25 44l185 84s452 328 729 538c-93-284-364-731-364-731s-77-205 87-432c-334 170-792 406-792 406zm1904 6521c-1028 0-1376-522-1376-522l160 392c61 169 709 696 1215 696l1-566z"/><path fill="#E78724" d="M-1825 12381s95 578 474 578c322 0 417-489 417-590l-891 12zm-630-872c34-93 152-468 189-808 46-409 29-1006 29-1006s-101 392-189 455c-89 63-253 492-253 492s-88 639-130 854c116 23 213-45 353 13h1zm-637-3076c63-468-76-872-76-872s13 644-63 771c-76 126-139 164-227 328-89 164 38 265 88 316 0 0 215-76 278-543z"/><path fill="#FDC168" d="M-3157 5916c-129 5 42 28 44 28l-44-28z"/><path fill="#FBA919" d="M-1497 6189s-202-33-303-185c-102-151-388-454-844-458-456-3-907 122-907 122l394 248c41-1 114-1 235 3 494 17 570 506 570 506l1743-240z"/><path fill="#FFF" d="M-1329 8890v1-1zm-598 160c-362-75-581-235-597-513-17-278 75-387 75-387s405 126 598 294c194 169 337 438 522 447-7 6-241 234-598 159z"/><path fill="#C9C9C9" d="M-1614 8806s-205 94-433 17c-299-99-319-410-319-410s-184 538 331 642c412 83 656-156 656-156l-235-93z"/><path fill="#463014" d="M-981 5230c7 78-8 383 124 477 38-249 167-524 677-704-110 290-15 532 30 645 348-316 583-264 583-264s-242 417-147 691c-699-55-1752 74-1755 0-22-462 357-829 488-845zm-1970 1549c-166-139-42-267-55-424-7-84-14-163-42-206-153-243-515-316-519-317l-169-33 112-132c14-17 476-457 1191-227 500 161 870 708 884 730l-250 118c-3-4-296-518-725-657-346-112-666-5-803 65 146 58 336 164 451 345 54 85 63 193 72 297 11 138 22 268 124 352l-270 89h-1zm-445 2019l1-1-1 1zm272-767c25-200-19-594-88-745 13 372-82 745-82 745s-64 688-101 766c10-13 211-273 271-766z"/><path fill="#463014" d="M-2288 6515s-68-294-254-443c-263-209-585-98-588-97l-46-144c15-5 383-121 721 117 340 240 382 457 385 481l-218 86zm-448 2096s-110-158-91-331c10-86 50-174 121-205 132-58 190 92 190 92s-185 45-220 444z"/><path fill="#463014" d="M-1526 8852zm7 13s-344 258-696-4c-189-140-171-487-113-634 150 34 278 96 384 167-134-120-252-208-252-210l-153-44-297-102c-4 23-113 532 200 878 139 154 790 498 1099-90l-179 26c5 8 7 13 7 13z"/><path fill="#463014" d="M-1558 8889c193 295 682 127 673-185 0 0-326 180-614-151-169-194-708-727-1439-550 505 111 1173 573 1380 887v-1z"/><path fill="#463014" d="M-3007 9721c47 27 211 197 211 451 0 128-12 768-76 1160 95 62 162 75 256 138 47-454 81-1111 66-1376-18-302-180-505-330-592-47-27-96-54-146-80-257-139-523-283-523-528 0-192 75-252 154-316l8-7c53-42 112-90 147-169 96-216 112-765 0-905-55-69-204-303-162-460 17-60 55-105 116-136 65-33 153-50 261-50 213 0 448 64 570 103 434 137 958 534 1109 653l7 5 96 67-60-101c-4-6-385-632-1065-862-133-44-393-119-649-119-152 0-281 26-384 78-124 64-209 166-244 295-86 315 194 666 204 677 33 59 46 482-29 651-10 24-39 47-75 76-11 9-24 18-37 28-107 81-267 202-267 482 0 382 388 590 699 757 52 27 100 53 144 78l-1 2z"/><path fill="#463014" d="M-2951 6779c-166-139-42-267-55-424-7-84-14-163-42-206-153-243-515-316-519-317l-169-33 112-132c14-17 476-457 1191-227 500 161 870 708 884 730l-250 118c-3-4-296-518-725-657-346-112-666-5-803 65 146 58 336 164 451 345 54 85 63 193 72 297 11 138 22 268 124 352l-270 89h-1z"/><path fill="#463014" d="M-2956 6807l-11-9c-123-102-102-204-80-301 9-45 20-92 15-140-6-80-13-156-37-195-146-230-499-304-503-305l-212-42 141-164c3-3 299-302 801-302 137 0 277 22 417 68 522 168 894 735 898 740l15 24-297 140-12-19c-32-54-313-518-711-646-97-32-200-48-306-48-190 0-345 52-427 87 138 62 304 166 410 333 57 90 66 201 75 308 12 133 22 258 115 336l36 29-327 107v-1z"/><path fill="#463014" d="M-2288 6515s-68-294-254-443c-263-209-585-98-588-97l-46-144c15-5 383-121 721 117 340 240 382 457 385 481l-218 86z"/><path fill="#463014" d="M-2306 6550l-7-29c-1-3-67-287-245-429-102-81-224-122-364-122-110 0-191 26-200 29l-24 9-62-193 24-7c11-4 108-34 246-34 182 0 354 53 498 154 349 246 392 472 395 498l4 19-265 106v-1zm-220-497c158 126 232 349 255 428l172-68c-16-61-84-243-371-444-137-96-294-145-468-145-96 0-170 15-206 24l31 96c36-9 105-24 191-24 149 0 286 46 396 133zm1159 6767c-75 0-151-27-204-73-40-35-177-160-237-314-22-57-17-103 15-136 23-23 70-50 164-50h510c72 0 124 15 153 46 38 39 26 89 16 115-19 46-96 196-226 335-46 50-114 77-191 77zm78-3913l-269-18s69 122 113 279c51 177-46 437-46 437s359-407 202-698zm-336 4624c-959-73-1296-979-1296-1168h250c2 82 256 857 1065 919l-19 250v-1z"/><path fill="#FFF" d="M-1894 11908c-15-86-17-168 1-249-73-55-203-75-301-107-81-51-491 52-789-309-373-451-295-721-295-721-96 107-188 66-334 562-146 495 68 841 468 1188 189 164 456 231 686 257-77-77 132-85 275-139-11-116 8-229 94-319 52-55 120-88 189-114 4-9 7-17 11-26l-6-24 1 1z"/><path fill="#C9C9C9" d="M-2184 12388c-9-24-15-49-21-74-7-27-40-105 1-17-11-22-17-45-22-69-648-1-1212-445-1103-1380-84-113-203 227-203 227s-324 941 513 1306c279 122 526 209 584 174 121 24 231-60 272-116-8-17-15-34-21-51z"/><path fill="#463014" d="M-1906 11773c1-79 17-156 55-232l9-15c-249-2-537-26-781-124-269-108-604-475-662-907 0 0-506 390-358 1226 140 785 796 1041 1545 1084 1-5-84-180-57-287-425 31-901-133-1130-511-210-346-151-936-65-1022 211 664 969 800 1444 788z"/><path fill="#463014" d="M-1828 11297c-134 395-410 715-410 715s379-17 400-84c15-50 342-814 467-1709-118 194-445 1044-457 1077v1z"/><path fill="#E78724" d="M1062 11507c49 72-315 77-315 77l-429-1199s429 656 744 1122zM113 9024s130 323 200 494c77 186 371 279 371 279s-152-160-152-564c0-169-219-237-219-237l-200 28z"/><path fill="#E78724" d="M1001 9345c493-176 543-808 543-985 0-176-934 177-1060 253-127 76-366 379-240 593 0 0 265 316 757 139zm1103-3511s-455-89-758 151-391 429-391 429l510 405s247-114 323-442c75-329 25-480 315-543h1z"/><path fill="#E78724" d="M376 8295c196-278 519-399 776-419 439-35 648 121 648 121s-719 30-927 302c-386 507-948 548-1038 437 104 5 218-47 341-163 76-72 138-190 200-278zm1214 982s798-274 647-552c-152-278-31-429-31-429s445 332 331 686c-69 217-186 374-829 675-308 572-64 1603-78 1608-25 8-433-202-405-1166 8-297 32-701 365-823v1zM545 6328h0zm793 406l-180 91c17 27 25 44 25 44l-185 84s-452 328-729 538c93-284 364-731 364-731s77-205-87-432c334 170 792 406 792 406zm-1904 6521c1028 0 1376-522 1376-522l-161 392c-60 169-708 696-1214 696l-1-566z"/><path fill="#E78724" d="M224 12959c-322 0-417-489-417-590l890 12s-94 578-473 578zm1104-1450c-34-93-152-468-190-808-45-409-28-1006-28-1006s101 392 189 455 252 492 252 492 88 639 130 854c-116 23-213-45-353 13zm637-3076c-63-468 76-872 76-872s-13 644 63 771c75 126 138 164 227 328 88 164-38 265-89 316-3-2-215-81-277-543z"/><path fill="#FDC168" d="M1986 5944l44-28c129 5-44 28-44 28z"/><path fill="#FBA919" d="M370 6189s202-33 303-185c101-151 387-454 844-458 456-3 907 122 907 122l-394 248c-42-1-114-1-235 3-494 17-570 506-570 506l-1743-240z"/><path fill="#FFF" d="M202 8890v1-1zm597 160c362-75 581-235 598-513s-76-387-76-387-404 126-597 294c-194 169-337 438-522 447 7 7 241 234 597 159z"/><path fill="#C9C9C9" d="M487 8806s205 94 433 17c299-99 319-410 319-410s183 538-331 642c-413 83-657-156-657-156l236-93z"/><path fill="#463014" d="M1823 6779c167-139 43-267 56-424 7-84 14-163 41-206 154-243 516-316 520-317l169-33-112-132c-15-17-477-457-1191-227-500 161-871 708-884 730l250 118c3-4 296-518 725-657 346-112 666-5 803 65-146 58-336 164-451 345-54 85-63 193-72 297-11 138-22 268-124 352l270 89zm446 2019s-210-261-273-767c-24-200 19-594 89-745-13 372 82 745 82 745s64 691 102 767z"/><path fill="#463014" d="M1161 6515s67-294 254-443c263-209 585-98 588-97l46-144c-15-5-383-121-721 117-341 240-382 457-385 481l218 86zm448 2096s110-158 90-331c-10-86-49-174-120-205-132-58-190 92-190 92s185 45 220 444z"/><path fill="#463014" d="M399 8852c-5 8-7 13-7 13s343 258 696-4c188-140 171-487 113-634-150 34-278 96-384 167 134-120 252-208 252-210l153-44 297-102c4 23 112 532-201 878-139 154-790 498-1098-90l178 26h1z"/><path fill="#463014" d="M431 8889c-194 295-682 127-673-185 0 0 326 180 614-151 168-194 708-727 1439-550-505 111-1174 573-1380 887v-1z"/><path fill="#463014" d="M1879 9721c-46 27-210 197-210 451 0 128 12 768 75 1160-95 62-161 75-255 138-48-454-82-1111-66-1376 18-302 180-505 330-592 47-27 96-54 146-80 257-139 523-283 523-528 0-192-75-252-154-316l-8-7c-52-42-112-90-147-169-96-216-112-765 0-905 55-69 205-303 162-460-17-60-55-105-116-136-65-33-153-50-261-50-212 0-448 64-570 103-434 137-958 534-1109 653-4 3-7 5-7 5l-96 67 60-101c3-6 384-632 1065-862 133-44 393-119 648-119 153 0 282 26 384 78 125 64 209 166 244 295 86 315-194 666-203 677-33 59-47 482 28 651 11 24 39 47 75 76 12 9 24 18 38 28 106 81 267 202 267 482 0 382-388 590-700 757-51 27-100 53-144 78l1 2z"/><path fill="#463014" d="M1417 6734c-62-105-220-307-583-484-406-198-876-298-1397-298v-1h-1v1c-521 0-991 101-1397 298-363 178-521 379-583 484l-26 35 311 69 10-12 5-12c5-20 47-131 394-301 371-181 804-273 1287-273 482 0 915 92 1286 273 347 170 389 281 394 301l5 12 10 12 311-69-26-35z"/><path fill="#463014" d="M1823 6779c167-139 43-267 56-424 7-84 14-163 41-206 154-243 516-316 520-317l169-33-112-132c-15-17-477-457-1191-227-500 161-871 708-884 730l250 118c3-4 296-518 725-657 346-112 666-5 803 65-146 58-336 164-451 345-54 85-63 193-72 297-11 138-22 268-124 352l270 89z"/><path fill="#463014" d="M1502 6700l2-1h-1l-1 1zm36-29c93-78 103-203 115-336 9-107 18-217 75-308 106-167 272-271 410-333-82-35-237-87-428-87-105 0-208 16-305 48-398 128-679 592-711 646l-12 19-297-140 15-24c4-5 376-572 898-740 140-46 280-68 417-68 502 0 799 299 801 302l141 165-212 41c-4 1-357 75-503 305-24 39-30 115-37 195-4 48 6 95 16 140 21 97 43 199-81 301l-10 9-326-107 34-28z"/><path fill="#463014" d="M1161 6515s67-294 254-443c263-209 585-98 588-97l46-144c-15-5-383-121-721 117-341 240-382 457-385 481l218 86z"/><path fill="#463014" d="M915 6445l3-20c4-25 46-252 395-497 144-101 316-155 498-155 138 0 235 31 246 34l24 8-62 193-24-8c-9-3-90-30-199-30-140 0-263 42-364 123-179 142-245 426-245 429l-7 29-264-106h-1zm1102-597c-36-9-111-24-206-24-174 0-332 49-469 145-286 201-354 383-370 444l172 68c22-79 97-302 255-428 110-87 247-133 396-133 86 0 155 14 191 24l31-96zM49 12743c-130-139-207-289-226-335-10-26-22-76 16-115 30-31 81-46 153-46h510c95 0 141 27 164 50 33 33 38 79 15 137-60 153-197 279-237 314-53 46-129 73-204 73-76 0-144-28-190-78h-1zm113-3836l269-18s-69 122-113 279c-51 177 46 437 46 437S4 9198 161 8907h1z"/><path fill="#E78724" d="M-564 7945c-171 0-395-5-563-125 0 0 220 385 563 385v-49l1 49c343 0 563-385 563-385-168 120-392 125-564 125z"/><path fill="#463014" d="M-91 7943c-172 104-326 141-473 144-146-3-300-40-472-144 0 0 251 306 471 309h3c220-2 471-308 471-308v-1zm589 5588l-19-249c808-62 1063-837 1065-919h250c0 189-337 1095-1296 1168z"/><path fill="#FFF" d="M767 11908c15-86 17-168-1-249 72-55 203-75 301-107 80-51 491 52 789-309 373-451 294-721 294-721 96 107 189 66 335 562 146 495-69 841-469 1188-189 164-456 231-686 257 77-77-131-85-275-139 12-116-7-229-94-319-52-55-119-88-188-114-4-9-8-17-11-26l6-24-1 1z"/><path fill="#C9C9C9" d="M1057 12388c8-24 15-49 21-74 7-27 40-105-1-17 10-22 17-45 22-69 648-1 1211-445 1102-1380 85-113 204 227 204 227s324 941-513 1306c-279 122-526 209-584 174-121 24-231-60-272-116 8-17 15-34 21-51z"/><path fill="#463014" d="M779 11773c-1-79-17-156-55-232l-9-15c249-2 536-26 781-124 268-108 604-475 662-907 0 0 506 390 358 1226-140 785-797 1041-1546 1084 0-5 85-180 58-287 425 31 901-133 1130-511 210-346 151-936 65-1022-210 664-969 800-1444 788z"/><path fill="#463014" d="M1081 11969c-89-96-254-212-633-212h-2023c-379 0-543 116-633 212-130 141-151 337-60 582 239 651 576 1313 1704 1314h1c1 0 1 1 1 1 1128-1 1465-663 1705-1315 90-244 70-440-61-581l-1-1zm-175 536c-115 327-421 1119-1470 1121-1048-2-1355-794-1469-1121-63-181-58-316 15-399 50-57 165-125 426-125h274c201 0 455-1 754-1 300 0 554 1 755 1h273c262 0 377 68 427 125 73 83 78 217 15 399z"/><path fill="#463014" d="M700 11297c135 395 410 715 410 715s-378-17-399-84c-15-50-342-814-467-1709 118 194 445 1044 457 1077l-1 1zm-4276 3170c-50-30-107-57-168-79-60-22-127-40-199-52-72-13-149-19-230-19-157 0-301 23-429 69-129 47-240 113-330 197-92 85-163 186-211 302-49 116-74 245-74 383 0 135 26 263 77 379s123 217 212 302c90 84 198 151 320 199 123 48 257 72 401 72 79 0 154-4 222-11 69-8 135-20 197-36 61-16 120-37 175-62 54-25 107-55 158-90 9-6 14-16 14-27v-759c0-18-15-34-33-34h-680c-19 0-34 16-34 34v303c0 19 15 34 34 34h244v215c-34 13-70 22-107 30-45 10-97 14-156 14-75 0-146-13-210-37-63-25-118-62-164-109-46-48-82-107-108-176-27-70-40-151-40-242 0-82 12-157 36-224 24-66 58-123 101-169 44-47 97-83 159-109 62-25 133-38 211-38 44 0 83 1 117 5s67 11 97 19c31 9 61 20 90 34 31 14 174 95 207 114 23 12 36 13 52-8l192-281c10-14 8-33-5-45-40-35-86-69-136-100l-2 2zm1688 1056c-21-32-46-60-75-83-9-7-18-14-28-21 39-18 76-39 108-62 50-37 93-79 128-125 35-47 62-99 79-154 18-55 27-114 27-175 0-81-15-157-45-226-30-70-79-131-145-182-65-50-149-90-250-117-100-28-222-42-363-42h-622c-18 0-33 16-33 34v1797c0 18 15 33 33 33h444c18 0 33-15 33-33v-631h80c35 0 54 6 63 11 14 7 26 19 37 37l317 521c39 63 103 95 189 95h403c18 0 33-15 33-33 0-10-4-19-10-25l-403-619zm-278-490c-10 29-27 54-50 76-24 22-55 40-92 52-39 13-87 20-144 20h-144v-465h145c106 0 184 20 233 59 46 38 69 90 69 158 0 36-5 69-16 99l-1 1zm2507-696h-444c-19 0-34 15-34 33v1064c0 60-8 113-23 159-16 45-38 83-67 114s-65 55-107 71c-85 34-209 34-294 0-42-16-77-40-106-71-29-32-52-70-67-115-16-46-24-100-24-159v-1063c0-18-15-34-33-34h-444c-19 0-34 16-34 34v1064c0 114 20 221 59 316 40 96 97 181 171 250s165 124 270 163c105 38 224 57 356 57 130 0 249-19 354-57 105-39 196-94 270-163s131-153 171-250c40-95 60-202 60-316v-1064c0-18-15-33-34-33zm2088 0h-391c-18 0-33 15-33 33v951c0 28 0 59 2 91l-841-1000c-13-15-25-27-36-36-12-11-25-19-38-25-14-6-28-9-45-11-14-2-32-3-52-3H761c-19 0-34 15-34 34v1796c0 19 15 34 34 34h391c18 0 34-15 34-34v-963c0-24-1-49-2-76l834 991c26 31 53 52 82 64 27 12 61 18 99 18h231c19 0 34-15 34-34v-1797c0-18-15-33-34-33h-1zm315 0c-18 0-34 15-34 33v331c0 18 16 33 34 33h505v1433c0 18 15 33 33 33h444c18 0 33-15 33-33v-1433h504c19 0 34-15 34-33v-331c0-18-15-33-34-33H2744z"/></g></g><g class="Graphic"><path class="BoundingBox" fill="none" d="M7042 7113h19000v7398H7042z"/><path fill="#FFF" d="M9458 7116l2412 1365v2729l-2412 1365-2413-1365V8481l2413-1365z"/><path fill="#8ED6FB" d="M9537 12192v-838l1185-652 717 414-1902 1076zm2033-3443l-696 402v1446l696 401V8749zm-2200 3443v-838l-1185-652-717 414 1902 1076zm-2032-1194V8749l696 402v1446l-696 401zm2032-3499v810l-1250 688-10 5-690-399 1950-1104zm2118 1104L9537 7499v810l1250 687 10 6 691-399z"/><path fill="#1C78C0" d="M9370 11163l-1169-643V9247l1169 675v1241zm167 0l1170-642V9247l-1170 675v1241zm-83-2709l1174 646-1174 677-1174-677 1174-646z"/><path fill="#F5FAFA" d="M14303 10708h515l524-1746h-501l-311 1239-331-1239h-434l-334 1239-307-1239h-501l521 1746h514l324-1119 321 1119zm1984 44c435 0 669-261 735-384l-304-231c-50 74-187 214-424 214-258 0-445-167-455-401h1230c3-33 3-66 3-100 0-571-307-932-848-932-498 0-855 394-855 922 0 524 357 912 918 912zm-434-1103c20-200 160-354 378-354 210 0 364 141 374 354h-752zm1828 1059v-180c46 57 220 224 518 224 501 0 855-377 855-915 0-541-327-918-828-918-301 0-475 167-518 227v-852h-461v2414h434zm13-868c0-327 194-514 447-514 268 0 448 211 448 514 0 310-187 504-448 504-280 0-447-227-447-504zm1540 1493h460v-805c44 56 217 223 518 223 502 0 829-377 829-918 0-534-354-915-855-915-298 0-472 167-519 227v-184h-434v2372h1zm447-1503c0-277 167-504 448-504 260 0 447 194 447 504 0 304-180 514-447 514-254 0-448-187-448-514zm2098 922c201 0 334-60 424-157l30 113h408V9603c0-391-167-685-728-685-268 0-531 101-688 207l174 314c130-66 290-123 464-123 204 0 317 103 317 257v114c-63-44-200-97-377-97-408-1-679 233-679 577 0 367 301 585 655 585zm-194-598c0-144 123-244 300-244 178 0 305 90 305 244 0 147-127 240-301 240-173 0-304-96-304-240zm1678-317c0-281 183-511 481-511 197 0 331 96 408 167l130-388c-114-86-294-187-551-187-531 0-929 391-929 922s388 912 932 912c254 0 444-107 544-187l-123-377c-78 63-218 156-395 156-290 0-497-210-497-507zm1649 871v-902l585 902h541l-662-955 615-792h-518l-561 735V8294h-461v2414h461z"/></g><g class="com.sun.star.drawing.CustomShape"><path class="BoundingBox" fill="none" d="M3518 8618h2542v2539H3518z"/><path fill="#FFF" d="M5070 8619l989 1257-989 1280v-768H3988V9363h1082v-744zm-1552 744v1025h117V9363h-117zm235 0v1025h117V9363h-117zm-235-744zm2541 2514z"/></g></g></g></g></svg>